<svg width="30" height="30" viewBox="0 0 30 30" fill="none" xmlns="http://www.w3.org/2000/svg">
<path d="M5.40697 24.9286L6.04618 24.0488H6.04618L5.40697 24.9286ZM4.07036 23.592L3.19055 24.2312H3.19055L4.07036 23.592ZM22.176 24.9286L21.5368 24.0488V24.0488L22.176 24.9286ZM23.5126 23.592L22.6328 22.9528V22.9528L23.5126 23.592ZM4.07036 6.82294L3.19055 6.18373L3.19055 6.18373L4.07036 6.82294ZM5.40697 5.48633L6.04618 6.36614L5.40697 5.48633ZM11.3879 5.42861C11.9884 5.42141 12.4695 4.92872 12.4623 4.32815C12.4551 3.72758 11.9624 3.24657 11.3618 3.25376L11.3879 5.42861ZM25.7452 17.6372C25.7524 17.0366 25.2714 16.5439 24.6708 16.5367C24.0703 16.5295 23.5776 17.0105 23.5704 17.6111L25.7452 17.6372ZM14.7552 20.0462L14.6351 18.9653L14.7552 20.0462ZM9.77715 19.6867L9.00817 20.4557H9.00817L9.77715 19.6867ZM9.4177 14.7087L10.4985 14.8288L9.4177 14.7087ZM10.8038 11.8247L10.0348 11.0558L10.8038 11.8247ZM9.73505 13.0861L8.75488 12.615L9.73505 13.0861ZM17.6391 18.6601L18.4081 19.4291L17.6391 18.6601ZM16.3778 19.7288L16.8488 20.709L16.3778 19.7288ZM13.7915 24.995C11.5018 24.995 9.87191 24.9935 8.61283 24.8571C7.37411 24.7229 6.62398 24.4686 6.04618 24.0488L4.76775 25.8084C5.77811 26.5425 6.95478 26.8652 8.37856 27.0194C9.78198 27.1715 11.5503 27.17 13.7915 27.17V24.995ZM1.829 15.2075C1.829 17.4487 1.82751 19.217 1.97956 20.6204C2.13382 22.0442 2.45649 23.2209 3.19055 24.2312L4.95017 22.9528C4.53038 22.375 4.27612 21.6249 4.14191 20.3862C4.0055 19.1271 4.004 17.4972 4.004 15.2075H1.829ZM6.04618 24.0488C5.6256 23.7432 5.25574 23.3734 4.95017 22.9528L3.19055 24.2312C3.63028 24.8365 4.16252 25.3687 4.76775 25.8084L6.04618 24.0488ZM13.7915 27.17C16.0327 27.17 17.801 27.1715 19.2045 27.0194C20.6282 26.8652 21.8049 26.5425 22.8153 25.8084L21.5368 24.0488C20.959 24.4686 20.2089 24.7229 18.9702 24.8571C17.7111 24.9935 16.0812 24.995 13.7915 24.995V27.17ZM22.6328 22.9528C22.3273 23.3734 21.9574 23.7432 21.5368 24.0488L22.8153 25.8084C23.4205 25.3687 23.9527 24.8365 24.3925 24.2312L22.6328 22.9528ZM4.004 15.2075C4.004 12.9178 4.0055 11.2879 4.14191 10.0288C4.27612 8.79009 4.53038 8.03995 4.95017 7.46216L3.19055 6.18373C2.45649 7.19408 2.13382 8.37075 1.97956 9.79453C1.82751 11.198 1.829 12.9662 1.829 15.2075H4.004ZM4.76775 4.60653C4.16252 5.04625 3.63028 5.5785 3.19055 6.18373L4.95017 7.46216C5.25574 7.04158 5.6256 6.67171 6.04618 6.36614L4.76775 4.60653ZM11.3618 3.25376C8.43874 3.2888 6.36654 3.44494 4.76775 4.60653L6.04618 6.36614C7.00067 5.67267 8.35709 5.46494 11.3879 5.42861L11.3618 3.25376ZM23.5704 17.6111C23.534 20.6419 23.3263 21.9983 22.6328 22.9528L24.3925 24.2312C25.554 22.6324 25.7102 20.5602 25.7452 17.6372L23.5704 17.6111ZM23.3611 11.4002L16.8702 17.8911L18.4081 19.4291L24.8991 12.9382L23.3611 11.4002ZM11.5728 12.5937L18.0637 6.10279L16.5257 4.56483L10.0348 11.0558L11.5728 12.5937ZM14.6351 18.9653C13.2158 19.123 12.2689 19.2256 11.5701 19.203C10.9004 19.1814 10.6761 19.0478 10.5461 18.9178L9.00817 20.4557C9.69946 21.147 10.5787 21.3471 11.4999 21.3769C12.3919 21.4057 13.5235 21.2772 14.8753 21.127L14.6351 18.9653ZM8.33685 14.5886C8.18665 15.9404 8.05822 17.072 8.08703 17.964C8.11678 18.8852 8.31688 19.7644 9.00817 20.4557L10.5461 18.9178C10.4161 18.7877 10.2825 18.5635 10.2609 17.8938C10.2383 17.1949 10.3408 16.2481 10.4985 14.8288L8.33685 14.5886ZM10.0348 11.0558C9.4936 11.597 9.03192 12.0386 8.75488 12.615L10.7152 13.5572C10.7947 13.3918 10.9267 13.2398 11.5728 12.5937L10.0348 11.0558ZM10.4985 14.8288C10.5994 13.9207 10.6357 13.7227 10.7152 13.5572L8.75488 12.615C8.47783 13.1915 8.42137 13.8279 8.33685 14.5886L10.4985 14.8288ZM16.8702 17.8911C16.2241 18.5372 16.0721 18.6691 15.9067 18.7487L16.8488 20.709C17.4253 20.432 17.8669 19.9703 18.4081 19.4291L16.8702 17.8911ZM14.8753 21.127C15.636 21.0425 16.2724 20.9861 16.8488 20.709L15.9067 18.7487C15.7412 18.8282 15.5432 18.8644 14.6351 18.9653L14.8753 21.127ZM23.3611 6.10279C24.1884 6.93008 24.7299 7.47483 25.078 7.93109C25.407 8.36226 25.4592 8.58437 25.4592 8.75149H27.6342C27.6342 7.91761 27.2837 7.23642 26.8072 6.61178C26.3497 6.01224 25.6829 5.34865 24.8991 4.56483L23.3611 6.10279ZM24.8991 12.9382C25.6829 12.1543 26.3497 11.4908 26.8072 10.8912C27.2837 10.2666 27.6342 9.58538 27.6342 8.75149H25.4592C25.4592 8.91862 25.407 9.14072 25.078 9.57189C24.7299 10.0282 24.1884 10.5729 23.3611 11.4002L24.8991 12.9382ZM24.8991 4.56483C24.1152 3.78102 23.4517 3.11416 22.8521 2.65673C22.2275 2.18014 21.5463 1.82964 20.7124 1.82964V4.00464C20.8795 4.00464 21.1016 4.05693 21.5328 4.3859C21.9891 4.73402 22.5338 5.2755 23.3611 6.10279L24.8991 4.56483ZM18.0637 6.10279C18.891 5.27549 19.4357 4.73402 19.892 4.3859C20.3232 4.05693 20.5453 4.00464 20.7124 4.00464V1.82964C19.8785 1.82964 19.1973 2.18014 18.5727 2.65673C17.9731 3.11416 17.3095 3.78102 16.5257 4.56483L18.0637 6.10279ZM24.8991 11.4002L18.0637 4.56483L16.5257 6.10279L23.3611 12.9382L24.8991 11.4002Z" fill="white"/>
</svg>
